<svg id="corn-pass-logo-white" width="115" height="92" viewBox="0 0 115 92" fill="none" xmlns="http://www.w3.org/2000/svg">
<g clip-path="url(#clip0_2078_1452)">
<path d="M110.872 5.48986C110.722 4.59121 110.387 3.91216 109.848 3.42905C109.29 2.92905 108.533 2.57432 107.596 2.37837C106.589 2.16891 105.28 2.06081 103.708 2.06081C100.88 2.06081 98.8584 2.33783 97.7005 2.88513C97.0077 3.21959 96.9174 3.62837 96.9174 3.94594C96.9642 5.52364 97.1617 7.89189 97.4963 10.9595C98.0987 16.8007 98.42 21.4189 98.4534 24.6892L98.4903 28.3041L97.1617 24.9493C96.074 22.1926 94.7421 18.5473 93.2027 14.1149C91.0542 8.02702 89.7022 4.41554 89.1835 3.37837C89.0731 3.22635 88.7083 2.88513 87.5136 2.58108C86.4728 2.31756 85.3082 2.18581 84.0566 2.18581C82.708 2.18581 81.4563 2.39189 80.3319 2.79729C79.3648 3.14527 78.8226 3.68581 78.6687 4.44594V4.44932C79.6994 5.96959 80.2148 7.93243 80.2148 10.277C80.2148 12.5101 79.6091 14.5642 78.4043 16.4257C78.5181 17.9966 78.6888 19.5574 78.913 21.1047C78.9732 21.5203 79.0368 21.9324 79.1004 22.3412C79.1907 22.3784 79.2811 22.4223 79.3714 22.4628C80.8607 23.1453 82.1926 23.8412 83.3304 24.5304C84.7159 25.3716 85.335 26.0777 85.335 26.8209C85.335 27.4155 85.0773 28.1858 84.5486 29.1824C84.0633 30.098 83.4509 31.0372 82.7347 31.973C82.3666 32.4527 81.9851 32.902 81.5936 33.3142C82.0286 34.777 82.4804 36.1216 82.9422 37.3345C83.1229 37.7297 83.5513 38.027 84.2206 38.2297C85.0338 38.473 85.9541 38.5946 86.9581 38.5946C88.2733 38.5946 89.5516 38.4257 90.753 38.0912C92.0281 37.7365 92.1653 37.402 92.1653 37.3986C92.1653 37.0541 92.0147 35.9966 91.3052 32.9257C90.8501 31.0034 90.4753 29.1757 90.1975 27.4932L89.4914 23.2095L91.4525 27.0709C93.7482 31.5912 95.3278 35.1013 96.1477 37.5C96.2916 37.875 96.7166 38.1824 97.4127 38.3885C98.256 38.6385 99.2767 38.7669 100.441 38.7669C102.453 38.7669 104.504 38.4797 106.545 37.9155C108.965 37.2466 109.684 36.5608 109.899 36.1892C110.404 34.7196 110.802 32.1486 111.077 28.5473C111.358 24.8615 111.502 21.0068 111.502 17.0912C111.502 12.5169 111.291 8.61486 110.872 5.48986Z" fill="white"/>
<path d="M54.1017 21.6993C54.1017 20.2466 54.1319 18.8108 54.1921 17.3953C53.5964 14.7432 52.8066 12.4696 51.8328 10.5811C51.2806 10.4122 50.782 9.97972 50.3436 9.28716C49.932 8.63175 49.5839 7.85472 49.3162 6.96621C47.1777 4.74324 44.5306 3.64526 41.2778 3.64526C40.478 3.64526 39.6413 3.71283 38.7645 3.84459C34.8692 4.4358 31.7502 5.80743 29.4946 7.92229C27.2223 10.054 25.5992 12.625 24.6722 15.5709C24.2104 17.0372 23.9393 18.6757 23.8657 20.4763C25.365 21.5642 26.6802 22.902 27.7845 24.4493C29.0227 26.1824 29.9531 28.098 30.5555 30.1419C30.8031 30.9865 30.5187 31.848 29.7155 32.7094C29.0361 33.4392 28.1091 34.125 26.9646 34.7466C26.814 34.8277 26.6634 34.9054 26.5128 34.9831C26.8006 34.9392 27.0851 34.902 27.3696 34.8716C28.4906 34.7567 29.4879 34.8142 30.3279 35.0405C31.5728 35.3784 32.038 36.1351 32.2053 36.7094C32.7976 38.723 33.0219 40.7094 32.8713 42.6351C35.766 44.2567 39.3736 44.7466 43.6338 44.1013C46.0399 43.7365 48.0579 43 49.7077 41.8817C51.3576 40.7601 52.6393 39.2534 53.5763 37.3446C54.1921 36.0946 54.6539 34.6655 54.9551 33.0642C54.3862 29.6858 54.1017 25.8784 54.1017 21.6993ZM49.0117 31.8953C48.8711 32.6757 48.4394 35.0574 46.7126 35.3176C46.6222 35.3311 46.5285 35.3378 46.4382 35.3378C45.6986 35.3378 44.9456 34.8986 44.1926 34.0236C43.4397 33.1486 42.757 31.8581 42.1111 30.0777C41.4853 28.3581 40.9699 26.1689 40.5851 23.5709C40.2002 20.973 40.0429 18.7872 40.1199 17.0709C40.2035 15.2905 40.4412 13.9662 40.8494 13.0203C41.3179 11.9324 41.927 11.3243 42.6666 11.2128C43.4832 11.0878 44.2863 11.5574 45.1196 12.6486C45.8358 13.5845 46.4951 14.929 47.1376 16.7534C47.7634 18.527 48.2721 20.7331 48.6569 23.3108C49.2359 27.2027 49.353 30.0135 49.0117 31.8953Z" fill="white"/>
<path d="M31.5728 41.8041C31.5695 42.0743 31.5561 42.3378 31.5326 42.6047C31.5126 42.8547 31.4825 43.1081 31.4456 43.3581C31.3954 43.7365 31.3252 44.1115 31.2415 44.4831C30.6994 46.8412 29.6653 48.9189 28.1627 50.652C27.4331 51.4932 26.6233 52.2061 25.7364 52.7939C25.5758 52.7838 25.4152 52.7804 25.2512 52.777C22.9722 52.7365 20.4054 53.1622 17.6177 54.0406C16.51 54.3919 15.3789 54.8142 14.221 55.3142C12.9526 55.1926 11.7245 54.8885 10.5565 54.4088C8.77615 53.6757 7.12965 52.348 5.66721 50.4662C4.18469 48.5541 2.9197 45.8412 1.9057 42.402C0.627318 38.0507 0.21904 34.2804 0.690902 31.1892C1.15942 28.1453 2.32736 25.6318 4.17131 23.7196C6.02864 21.7939 8.4415 20.375 11.3396 19.5068C12.6715 19.1047 13.9767 18.9054 15.245 18.9054C15.9478 18.9054 16.6372 18.9662 17.3132 19.0912C19.1939 19.4324 20.9375 20.1318 22.5037 21.1655C22.5271 21.1824 22.5505 21.196 22.5739 21.2128C22.7747 21.348 22.9722 21.4865 23.1663 21.6284C23.3972 21.8007 23.6248 21.9797 23.8456 22.1655V22.1689C24.9132 23.0473 25.8703 24.0777 26.7002 25.2399C27.8481 26.848 28.7115 28.6284 29.2704 30.527C29.3741 30.875 29.1968 31.2973 28.7416 31.7838C28.1593 32.4054 27.3495 33.0034 26.3288 33.5574C26.2183 33.6182 26.1079 33.6757 25.9975 33.7297C25.7967 33.8345 25.5959 33.9358 25.3884 34.0304C25.1876 34.125 24.9835 34.2128 24.7793 34.3007C24.2071 34.5405 23.6214 34.75 23.0224 34.9291C22.082 35.2128 21.1483 35.4088 20.2514 35.5169C19.4115 35.6149 18.6819 35.5608 18.0829 35.3581C17.5943 35.1926 17.2931 34.8682 17.1358 34.3311C16.9149 33.5845 16.6506 32.7399 16.346 31.821C16.0382 30.8885 15.6901 30 15.322 29.1791C14.9304 28.3176 14.5054 27.6149 14.0503 27.0845C13.304 26.2095 12.5812 26.1993 12.1026 26.3412C11.1321 26.6318 10.6803 27.5811 10.754 29.1689C10.8175 30.4561 11.1053 31.9865 11.614 33.7128C12.0658 35.2432 12.6414 36.8514 13.3308 38.4899C14.0168 40.1351 14.7598 41.6622 15.5328 43.0338C16.3159 44.4257 17.0856 45.5507 17.8252 46.3818C18.1565 46.7534 19.1672 47.8987 20.3016 47.5574C20.72 47.4291 21.4194 47.0068 21.3792 45.5912C21.3525 44.8108 21.2186 43.9088 20.981 42.9088C20.7501 41.9493 20.5125 41.0574 20.2782 40.2601C20.1444 39.8041 20.2079 39.4223 20.4824 39.0574C20.8204 38.6014 21.3424 38.1824 22.0352 37.8176C22.7781 37.4257 23.598 37.0912 24.4714 36.8311C24.8864 36.7061 25.3014 36.598 25.7164 36.5101C25.9406 36.4595 26.1648 36.4155 26.3857 36.3716C26.6233 36.3345 26.8575 36.2973 27.0918 36.2669C27.229 36.2466 27.3695 36.2297 27.5068 36.2162C28.4639 36.1182 29.2972 36.1622 29.9799 36.348C30.6826 36.5372 30.8566 36.8649 30.9236 37.0946C31.3954 38.696 31.613 40.2703 31.5728 41.8041Z" fill="white"/>
<path d="M36.8835 62C36.4284 60.5338 35.6821 59.1892 34.6581 58.0101C33.6441 56.8378 32.3389 55.8953 30.7828 55.2162C29.4341 54.625 27.8613 54.2736 26.0943 54.1655C25.8098 54.1453 25.522 54.1351 25.2275 54.1284C25.0736 54.125 24.9196 54.125 24.7624 54.125C23.9692 54.1351 23.1359 54.2061 22.2658 54.3345C21.1682 54.4932 20.0136 54.7466 18.8089 55.0946C18.5478 55.1689 18.2835 55.2466 18.0157 55.3311C17.3498 55.5405 16.6771 55.7804 15.9911 56.0439C15.4757 56.2466 14.957 56.4595 14.4316 56.6892C11.8414 57.8277 9.12396 59.3446 6.31621 61.2162C5.88116 61.5203 6.03176 62.375 6.2359 63.0372C6.48689 63.848 6.9119 64.6926 7.49754 65.554C8.08319 66.4155 8.70899 67.1182 9.35822 67.6419C9.71295 67.9291 10.2116 68.2432 10.5864 68.1284C10.7738 68.0676 11.2256 67.8547 12.1225 67.1013C12.5307 66.7703 12.9123 66.4932 13.2603 66.2736L14.0434 65.7804L14.2643 66.6858C14.7595 68.723 15.3552 70.8649 16.0312 73.0473C18.3069 80.3919 21.0945 86.5777 24.3072 91.4358C24.5716 91.8108 25.1071 92.2736 26.6331 91.7939C27.2656 91.5946 27.9248 91.2973 28.6042 90.902C29.2835 90.5068 29.9863 90.0169 30.7058 89.4324C32.1716 88.2466 33.4031 87.0203 34.3703 85.7939C35.6386 84.1858 35.5115 83.7095 35.5048 83.6892C35.478 83.6014 35.3676 83.3311 34.9191 82.7095C34.5577 82.2027 34.1327 81.6453 33.6608 81.0439C32.9681 80.1486 32.3356 79.2872 31.7767 78.4763L31.4454 77.9966L31.8671 77.598C32.7706 76.7432 33.5705 75.8513 34.2532 74.9257C33.9821 74.7703 33.7077 74.5101 33.4801 74.0811C33.2191 73.5878 33.035 73.0068 32.9279 72.3547C32.7706 71.3784 32.7807 70.3682 32.9647 69.3615C33.189 68.1216 33.711 67.4257 34.5142 67.2939C34.8589 67.2365 35.1969 67.1892 35.5148 67.152C35.6654 67.1351 35.8193 67.1149 35.9766 67.0946C36.2644 65.4155 36.579 63.7601 36.9237 62.1419C36.9137 62.0946 36.8969 62.0473 36.8835 62ZM28.718 71.4291L28.0721 72.2635L27.5935 71.3209C26.5762 69.3074 25.6525 67.223 24.8494 65.125L24.3374 63.7905L25.6827 64.2399C27.8479 64.9628 29.1798 66.0912 29.645 67.5878C30.0332 68.8412 29.7219 70.1351 28.718 71.4291Z" fill="white"/>
<path d="M65.219 71.4764C64.5966 71.4662 64.0143 71.4291 63.4688 71.3716C62.2339 71.1892 61.2768 70.5878 60.5941 69.5878C59.965 68.6622 59.5533 67.5845 59.3726 66.3818C59.1216 64.696 59.2354 63.1081 59.7073 61.6622C59.7207 61.6216 59.7341 61.5845 59.7508 61.5439L59.4195 61.7128L59.0781 61.2635C56.7054 58.1115 54.5804 55.4662 52.7632 53.3987L51.6722 52.1149L51.7592 51.7737C51.9266 51.1318 52.1508 50.3818 52.4319 49.5473C52.9807 47.9088 53.0343 47.4696 53.0376 47.3784C52.9607 46.9966 52.5089 46.6115 51.7258 46.2534C50.7553 45.8108 49.6041 45.4932 48.309 45.3041C47.0138 45.1182 45.8359 45.1115 44.8018 45.2804C44.0522 45.4054 43.1051 45.6858 42.8574 46.3176C41.9204 48.8277 40.9098 52.0169 39.8556 55.7838C39.29 57.8108 38.7713 59.9223 38.3061 62.098C38.1857 62.6419 38.0719 63.1892 37.9614 63.7432C37.7439 64.8108 37.5431 65.8953 37.3557 66.9899C37.3055 67.2601 37.262 67.5304 37.2152 67.8007L37.1382 68.277L36.6663 68.3547C36.3216 68.4122 35.9836 68.4595 35.6624 68.4966C35.3679 68.5304 35.0533 68.571 34.732 68.625C34.5915 68.6487 34.3974 68.9595 34.2802 69.6047C34.1263 70.4595 34.1163 71.3108 34.2501 72.1351C34.3338 72.6419 34.471 73.0845 34.6618 73.4459C34.819 73.7399 34.9529 73.7804 35.0165 73.7905H35.0265L35.7996 73.8209L36.5325 73.8514L36.5291 73.8987L36.4756 74.5507C36.2647 77.2872 36.2949 79.6385 36.5693 81.5405C36.6831 82.0101 37.0211 82.6487 38.5605 82.8547C39.9627 83.0405 41.5657 82.9899 43.3193 82.6959C45.4878 82.3378 47.5393 81.7669 49.4167 80.9932C51.2539 80.2399 51.6722 79.8074 51.7626 79.6824C51.3978 77.4189 51.0832 75.0237 50.8323 72.5676L50.7687 71.9595L51.3644 71.8378C53.0644 71.4899 54.7778 71.098 56.4544 70.6723L57.0468 70.5203L57.2509 71.1014C58.0775 73.4493 58.7669 76.0777 59.2923 78.9088C59.376 79.125 59.7943 79.2838 60.4201 79.3378C61.3571 79.4189 62.3946 79.3649 63.5056 79.1824C64.9346 78.9426 65.9888 78.652 66.638 78.3142C66.8287 78.2162 67.2738 77.9561 67.2337 77.7264C66.9258 75.8378 66.2531 73.7466 65.219 71.4764ZM50.3939 65.348L50.6214 57.7297L54.1755 64.0068L50.3939 65.348Z" fill="white"/>
<path d="M88.4407 59.2061C87.4535 59.3142 86.5767 59.9628 85.8204 61.1318C85.0975 62.2534 84.6189 63.554 84.388 65C82.6913 66.1182 80.6901 67.0608 78.4211 67.8108C75.7941 68.6824 73.1972 69.3142 70.7107 69.6926C68.9973 69.9561 67.4445 70.1013 66.0757 70.125C65.8181 70.1318 65.5671 70.1318 65.3261 70.1284C65.0684 70.125 64.8141 70.1182 64.5732 70.1081C64.2485 70.0878 63.9373 70.0642 63.6395 70.0304C62.8028 69.9054 62.167 69.5101 61.6985 68.8209C61.1831 68.0676 60.8451 67.179 60.6979 66.1824C60.477 64.7061 60.5707 63.3277 60.979 62.0845C61.5111 60.4561 62.3075 60.3345 62.5719 60.2939C63.2613 60.1892 63.9273 60.1182 64.5598 60.0845C64.8208 60.0709 65.0785 60.0642 65.3261 60.0608H65.6106C65.8482 60.0608 66.0858 60.0642 66.32 60.0676C66.8555 60.0777 67.3876 60.098 67.9063 60.1318C69.7101 60.2736 71.8151 60.2027 74.1777 59.9122C75.2754 59.7432 76.0484 59.5338 76.5437 59.2703C77.2432 58.8953 77.5577 58.4426 77.4808 57.929C77.3804 57.2432 76.6408 57 76.3965 56.9189C75.9179 56.7635 75.339 56.7128 74.6161 56.7601L72.3037 56.9595C70.0247 57.1723 67.836 57.3209 65.798 57.402C63.7968 57.4797 61.9896 57.375 60.4167 57.0845C58.9175 56.8108 57.6759 56.2432 56.7289 55.4054C55.8119 54.5878 55.2196 53.3311 54.9719 51.6622C54.7209 49.9831 54.8581 48.4493 55.3802 47.1047C55.9123 45.7365 56.7389 44.4966 57.8399 43.4155C58.961 42.3142 60.3097 41.3412 61.8457 40.5236C63.4019 39.6959 65.1053 39.0034 66.9124 38.4628C68.7329 37.9189 70.5902 37.5 72.4375 37.2162C74.6195 36.8851 76.7579 36.7365 78.7926 36.7736C79.3448 36.8277 79.8635 37.3007 80.332 38.1791C80.8809 39.2128 81.2657 40.4392 81.4732 41.8277C81.6271 42.8547 81.6573 43.875 81.5635 44.8547C81.4765 45.7905 81.2389 46.5845 80.8574 47.2196C80.5261 47.7736 80.0743 48.0777 79.4385 48.1757C76.3363 48.6486 73.5887 49.0135 71.2629 49.2669C69.6867 49.4561 68.2309 49.6419 66.9291 49.8243C66.2799 49.9223 64.3054 50.223 64.2218 51.625L64.2184 51.6959L64.2285 51.7669C64.3088 52.2905 64.7472 52.6385 65.537 52.8074C66.1092 52.9324 66.9392 52.9088 68.0736 52.7365L70.4095 52.3784C72.0694 52.125 73.987 51.9426 76.1053 51.8277C78.1869 51.7196 80.2115 51.8851 82.1057 52.3142C82.2161 52.3412 82.3266 52.3716 82.437 52.402C82.5742 53.4155 82.8955 54.3108 83.4041 55.0709C84.2475 56.3345 85.489 57.3581 87.092 58.1149C87.5237 58.3176 87.9789 58.5101 88.4541 58.6926C88.4608 58.8615 88.4574 59.0338 88.4407 59.2061Z" fill="white"/>
<path d="M114.466 65.0642C114.356 66.1014 113.914 67.098 113.151 68.0304C112.375 68.9764 111.204 69.7736 109.691 70.3953C107.569 71.2162 105.106 71.7162 102.372 71.8818C101.325 71.9459 100.287 71.9764 99.2697 71.9764C97.6065 71.9764 95.9901 71.8919 94.4407 71.723C91.5961 71.4155 89.2602 70.9122 87.5167 70.2365C86.7369 69.8986 86.2216 69.3547 85.9405 68.5676C85.6359 67.7128 85.5322 66.7737 85.6359 65.7804C85.6393 65.7737 85.6393 65.7635 85.6393 65.7568C85.6727 65.4426 85.7196 65.1351 85.7798 64.8378C85.8535 64.4459 85.9539 64.0642 86.0743 63.7027C86.2919 63.0405 86.583 62.4257 86.9411 61.8682C87.3828 61.1824 87.7944 60.8446 88.1358 60.6791C88.3834 60.5608 88.5943 60.5338 88.7482 60.5338C88.7984 60.5338 88.8453 60.5372 88.8821 60.5405C88.9022 60.5405 88.9189 60.5439 88.9356 60.5439C89.1431 60.5676 89.3506 60.5912 89.5514 60.6216C90.301 60.723 91.0071 60.8581 91.6564 61.0237C92.4997 61.2432 93.3397 61.4899 94.1361 61.7568C95.8429 62.3581 97.8977 62.8277 100.257 63.152C101.358 63.2736 102.161 63.2669 102.703 63.1385C103.476 62.9561 103.895 62.6014 103.948 62.0845C104.022 61.3919 103.369 60.9696 103.155 60.8277C102.73 60.5541 102.185 60.3547 101.472 60.2196L99.1861 59.8176C96.9272 59.4358 94.7753 59.0203 92.7808 58.5743C91.6764 58.3277 90.6424 58.0372 89.6919 57.7061C89.4376 57.6216 89.1933 57.5304 88.9524 57.4392C88.6779 57.3345 88.4136 57.2264 88.1559 57.1115C87.9852 57.0405 87.8212 56.9662 87.6606 56.8885C86.2785 56.2399 85.221 55.3716 84.5148 54.3176C84.2404 53.9088 84.0363 53.4426 83.9024 52.9257C83.8355 52.6757 83.7886 52.4122 83.7518 52.1351C83.7251 51.8987 83.7083 51.652 83.705 51.3987C83.6949 51.0338 83.7117 50.6486 83.7552 50.2466C83.9359 48.5574 84.4546 47.1115 85.3013 45.9426C86.158 44.7568 87.2724 43.7703 88.6077 43.0068C89.9697 42.2297 91.5192 41.6351 93.2125 41.2365C94.9226 40.8378 96.7465 40.6047 98.6306 40.5439C100.525 40.4831 102.429 40.5541 104.29 40.7568C106.482 40.9966 108.587 41.402 110.544 41.9595C111.066 42.1554 111.448 42.7432 111.679 43.7128C111.95 44.8547 112.013 46.1385 111.863 47.5338C111.752 48.5676 111.528 49.5608 111.19 50.4865C110.869 51.3682 110.441 52.0743 109.912 52.5912C109.457 53.0372 108.928 53.2196 108.299 53.152C105.17 52.8108 102.419 52.4628 100.116 52.1115C98.5502 51.8885 97.0945 51.6959 95.7826 51.5372C95.1334 51.4662 93.1456 51.25 92.7139 52.5845L92.6837 52.723C92.6302 53.2466 92.9649 53.6993 93.6844 54.0642C94.2098 54.3311 95.0196 54.5203 96.1608 54.6453L98.5067 54.902C100.18 55.0845 102.081 55.3953 104.156 55.8311C106.197 56.2601 108.115 56.9358 109.835 57.8378C111.488 58.7669 112.726 59.8987 113.513 61.2027C114.296 62.4966 114.607 63.7601 114.466 65.0642Z" fill="white"/>
<path d="M83.7888 26.5405C83.6048 26.3513 83.2668 26.0676 82.641 25.6892C81.6906 25.1115 80.5929 24.5304 79.3748 23.9527C79.194 23.8649 79.0066 23.7804 78.8192 23.6926C78.7556 23.6622 78.6921 23.6351 78.6318 23.6081C78.3842 23.4932 78.1399 23.3851 77.8989 23.277C76.8013 22.7905 75.7873 22.3649 74.8703 22.0101C73.2941 21.402 72.9427 21.3209 72.8724 21.3108L71.0586 21.0507L72.608 20.0676C74.5323 18.8547 76.0014 17.5236 77.0355 16.0676C77.2597 15.7534 77.4639 15.4324 77.6446 15.1014C77.8855 14.6723 78.0897 14.2365 78.257 13.7872C78.672 12.6858 78.8761 11.5169 78.8761 10.277C78.8761 9.03041 78.7155 7.91554 78.3976 6.94595C78.2503 6.48986 78.0663 6.06757 77.8487 5.67567C77.7584 5.51013 77.658 5.35135 77.5542 5.19595C77.4639 5.06419 77.3702 4.93919 77.2731 4.81419C74.7866 1.62162 69.8739 0 62.6722 0C58.8537 0 54.8714 0.432432 50.8388 1.29054C50.2331 1.44257 50.1025 2.54054 50.1025 3.43243C50.1025 4.29054 50.2297 5.20946 50.4807 6.16554C50.4907 6.20608 50.5008 6.24324 50.5142 6.28041C50.7551 7.17568 51.0797 7.94257 51.4713 8.56081C51.6855 8.90203 52.0168 9.30743 52.3581 9.30743C52.4351 9.30743 52.5321 9.30067 52.656 9.28378C52.9638 9.24324 53.4257 9.13513 54.0983 8.88176C54.5534 8.72297 54.9952 8.59122 55.4202 8.48649L56.3706 8.25676L56.2401 9.23649C55.8954 11.8142 55.6578 14.5034 55.5407 17.2669C55.4905 18.3074 55.4604 19.3581 55.4503 20.4189C55.4436 20.8446 55.4403 21.2703 55.4403 21.6993C55.4403 24.9392 55.6143 27.9459 55.9623 30.6892C56.0627 31.5068 56.1799 32.3007 56.3137 33.0709C56.4409 33.8176 56.5848 34.5372 56.7421 35.2365C56.8157 35.5203 57.0667 36.4595 59.2587 36.4595C60.594 36.4595 62.1367 36.1723 63.8401 35.6047C65.5669 35.0338 67.0829 34.3649 68.3445 33.6216C69.9576 32.6723 69.9777 32.2162 69.9777 32.2095C69.9777 32.1182 69.9342 31.6689 69.3719 29.7432C69.1444 29.0236 68.9503 28.3378 68.7997 27.7162L68.3445 25.8176L69.8639 27.027C70.8611 27.8176 72.608 29.3176 75.0611 31.4797C77.1526 33.3649 77.8855 33.9662 78.1432 34.1554C78.5381 34.098 79.0301 33.8277 79.5822 33.3649C79.7496 33.2263 79.9169 33.0777 80.0809 32.9223C80.2616 32.7534 80.4423 32.5743 80.623 32.3851C80.8004 32.1959 80.9777 31.9966 81.1551 31.7905C81.3291 31.5845 81.5032 31.3682 81.6738 31.1453C82.3465 30.2669 82.9187 29.3919 83.3705 28.5439C83.916 27.5169 83.9963 27.0236 83.9963 26.8209C83.9963 26.8209 83.9696 26.7297 83.7888 26.5405ZM67.9095 16.7331L67.0126 17.2061L66.9323 16.1926C66.7984 14.5878 66.7349 12.973 66.7349 11.3851L66.7817 8.84459L67.8124 9.5777C69.4723 10.7568 70.3157 12.0608 70.3157 13.4527C70.3157 14.7872 69.5058 15.8919 67.9095 16.7331Z" fill="white"/>
</g>
<defs>
<clipPath id="clip0_2078_1452">
<rect width="114" height="92" fill="white" transform="translate(0.5)"/>
</clipPath>
</defs>
</svg>
